P3
11 21
255
137 191 177
149 198 179
142 200 186
136 200 186
125 191 177
118 191 174
117 175 163
105 158 148
131 173 159
175 202 183
16 29 11
145 205 193
153 207 191
148 206 194
144 206 195
137 200 189
128 196 183
117 188 174
111 187 177
100 173 162
137 200 181
115 164 142
137 197 185
143 201 187
147 200 190
152 205 195
149 202 192
145 198 188
153 205 193
140 200 192
146 212 210
129 191 186
111 182 166
154 205 196
151 202 195
148 206 192
149 207 192
152 206 192
157 207 195
148 199 184
142 198 189
146 203 196
152 204 192
135 192 175
157 201 188
153 201 187
137 197 189
138 203 195
129 199 189
121 194 183
130 199 181
141 205 189
142 202 192
131 184 174
147 195 183
161 204 197
161 214 204
116 182 170
122 190 177
123 195 181
117 189 175
122 194 180
128 196 185
119 184 176
135 195 193
138 199 191
157 223 211
110 191 174
108 195 186
111 198 192
115 197 193
107 187 184
97 174 164
115 191 181
111 186 181
117 192 188
117 194 186
155 198 189
140 192 180
146 200 187
124 180 169
119 179 167
119 183 169
121 192 176
111 183 169
105 181 168
98 178 167
118 199 190
119 172 156
128 183 160
137 188 171
154 202 186
162 209 193
170 214 199
196 238 224
203 243 232
207 243 233
175 207 192
130 174 157
129 196 178
133 201 178
98 177 158
99 183 167
96 180 164
87 174 157
114 197 179
92 170 157
97 168 160
120 187 170
126 180 164
131 199 184
113 182 164
105 178 167
108 188 177
94 178 165
93 184 169
77 171 155
87 178 169
80 169 167
89 176 168
80 172 157
111 183 171
120 192 180
109 183 168
103 177 162
120 192 178
111 183 169
108 181 161
111 185 170
113 186 179
101 177 165
88 169 154
118 196 180
116 192 180
101 178 158
108 186 164
100 174 159
92 163 157
89 166 148
90 164 147
89 161 147
109 177 164
99 162 143
102 172 162
97 173 163
92 175 155
98 177 156
111 184 167
125 188 177
107 168 153
99 153 140
84 127 118
112 144 139
124 155 147
70 144 129
99 182 164
128 203 183
128 191 174
133 186 170
89 130 116
119 149 139
93 114 107
26 35 32
23 23 23
23 18 22
127 174 156
121 155 138
79 103 87
167 185 173
68 81 74
6 15 12
7 10 15
21 21 29
10 9 17
27 26 34
25 22 29
9 18 15
9 14 10
10 10 10
8 8 10
17 16 21
21 20 26
13 12 18
11 10 18
8 7 15
12 12 20
7 5 10
10 16 16
9 15 15
9 10 15
18 19 24
11 12 17
15 16 21
13 12 18
19 18 24
9 8 14
11 10 16
4 12 14
9 15 15
14 20 20
16 17 22
20 21 26
12 13 18
16 17 22
0 0 5
10 9 15
9 8 14
8 7 13
11 6 12
11 17 17
10 16 16
23 24 29
18 19 24
13 14 19
11 12 17
12 11 17
10 9 15
23 22 28
14 13 19
19 17 22
21 26 30
12 16 19
16 10 22
23 15 28
20 14 24
15 12 19
27 19 16
26 29 22
11 26 19
0 16 4
29 70 52
